# xmcd CD database file
#
# Track frame offsets:
#	150
#	15079
#	29544
#	44503
#	58950
#	74107
#	88192
#	101344
#	115981
#	131259
#	144579
#	159650
#	171489
#	185400
#	199579
#	214352
#	227416
#	237940
#	250782
#	264618
#	279520
#	292802
#	306860
#	321969
#
# Disc length: 4482 seconds
#
# Revision: 0
# Processed by: cddbd v1.5.1PL0 Copyright (c) Steve Scherf et al.
# Submitted via: CDex 1.51
#
DISCID=65118018
DTITLE=Count Basie - Complete 1941-1951 Columbia Recordings [CD2] [Definitive #11209, 2001]
DYEAR=1942
DGENRE=Jazz
TTITLE0=St. Louis Blues
TTITLE1=Rusty Dusty Blues
TTITLE2=Ride On
TTITLE3=Lose the Blackout Blues
TTITLE4=Time on My Hands
TTITLE5=It's Sand, Man!
TTITLE6=Ain't the Truth?
TTITLE7=For the Good of Your Country
TTITLE8=Taps Miller
TTITLE9=Jimmy's Blues
TTITLE10=I Didn't Know About You
TTITLE11=Red Bank Boogie
TTITLE12=Avenue C
TTITLE13=This Heart of Mine
TTITLE14=That Old Feeling
TTITLE15=Blue Skies
TTITLE16=Jivin' Joe Jackson
TTITLE17=High Tide
TTITLE18=Queer Street
TTITLE19=Patience and Fortitude
TTITLE20=The Mad Boogie
TTITLE21=Lazy Day Blues
TTITLE22=Rambo
TTITLE23=Stay Cool
EXTD=YEAR: 1942
EXTT0=
EXTT1=
EXTT2=
EXTT3=
EXTT4=
EXTT5=
EXTT6=
EXTT7=
EXTT8=
EXTT9=
EXTT10=
EXTT11=
EXTT12=
EXTT13=
EXTT14=
EXTT15=
EXTT16=
EXTT17=
EXTT18=
EXTT19=
EXTT20=
EXTT21=
EXTT22=
EXTT23=
PLAYORDER=
